HIERARCHY
ROOT Hips
{
     OFFSET 1.88212 96.90440 -13.34250
     CHANNELS 6 Xposition Yposition Zposition Zrotation Xrotation Yrotation
     JOINT Spine
     {
          OFFSET 0.00000 11.89050 0.00000
          CHANNELS 3 Zrotation Xrotation Yrotation
          JOINT Spine1
          {
               OFFSET -0.00000 25.65740 0.12766
               CHANNELS 3 Zrotation Xrotation Yrotation
               JOINT HEad
               {
                    OFFSET 0.00000 8.73416 0.01134
                    CHANNELS 3 Zrotation Xrotation Yrotation
                    End Site
                    {
                         OFFSET -0.29000 12.77420 2.51395
                    }
               }
               JOINT LeftShoulder1
               {
                    OFFSET 8.99000 -0.36225 -0.22000
                    CHANNELS 3 Zrotation Xrotation Yrotation
                    JOINT LeftArm
                    {
                         OFFSET 10.28270 -0.00338 0.32212
                         CHANNELS 3 Zrotation Xrotation Yrotation
                         JOINT LeftForeArm
                         {
                              OFFSET 32.76690 0.09914 -1.42434
                              CHANNELS 3 Zrotation Xrotation Yrotation
                              JOINT LeftHand
                              {
                                   OFFSET 27.56430 0.08536 1.02216
                                   CHANNELS 3 Zrotation Xrotation Yrotation
                                   End Site
                                   {
                                        OFFSET 16.74430 -0.60000 1.50291
                                   }
                              }
                         }
                    }
               }
               JOINT RightShoulder
               {
                    OFFSET -8.99000 -0.36225 -0.22000
                    CHANNELS 3 Zrotation Xrotation Yrotation
                    JOINT RightArm
                    {
                         OFFSET -10.28270 -0.00338 0.32212
                         CHANNELS 3 Zrotation Xrotation Yrotation
                         JOINT RightForeArm
                         {
                              OFFSET -32.89710 0.09914 -1.42434
                              CHANNELS 3 Zrotation Xrotation Yrotation
                              JOINT RightHand
                              {
                                   OFFSET -27.49210 0.08536 1.02216
                                   CHANNELS 3 Zrotation Xrotation Yrotation
                                   End Site
                                   {
                                        OFFSET -16.63120 -0.60000 1.50291
                                   }
                              }
                         }
                    }
               }
          }
     }
     JOINT LeftUpLeg
     {
          OFFSET 8.94580 -8.66707 0.10165
          CHANNELS 3 Zrotation Xrotation Yrotation
          JOINT LeftLeg
          {
               OFFSET 0.00000 -44.42270 1.37270
               CHANNELS 3 Zrotation Xrotation Yrotation
               JOINT LeftFoot
               {
                    OFFSET -0.25355 -42.09240 -1.46059
                    CHANNELS 3 Zrotation Xrotation Yrotation
                    JOINT LeftToes
                    {
                         OFFSET -0.04000 -4.41509 8.49910
                         CHANNELS 3 Zrotation Xrotation Yrotation
                         End Site
                         {
                              OFFSET 0.08000 -0.04745 9.77979
                         }
                    }
               }
          }
     }
     JOINT RightUpLeg
     {
          OFFSET -8.94580 -8.66707 0.10165
          CHANNELS 3 Zrotation Xrotation Yrotation
          JOINT RightLeg
          {
               OFFSET 0.00000 -44.42270 1.37270
               CHANNELS 3 Zrotation Xrotation Yrotation
               JOINT RightFoot
               {
                    OFFSET 0.25355 -42.09240 -1.46059
                    CHANNELS 3 Zrotation Xrotation Yrotation
                    JOINT RightToes
                    {
                         OFFSET 0.04000 -4.41509 8.49910
                         CHANNELS 3 Zrotation Xrotation Yrotation
                         End Site
                         {
                              OFFSET -0.08000 -0.13745 9.77979
                         }
                    }
               }
          }
     }
}
MOTION
Frames: 12
Frame Time: 0.01667
-80.58756 89.87746 151.30640 -4.93573 4.22988 -159.32681 6.23529 16.56377 13.32390 0.00539 -0.00812 -0.02128 -34.38824 23.58916 28.55393 9.29070 -3.42027 -3.69811 20.43555 -79.32991 39.98483 -42.90364 47.70086 -99.94580 4.38149 10.38061 0.63194 30.95647 -1.89637 3.97887 37.07420 -15.43646 59.93948 23.07594 36.67109 104.42451 -5.42603 6.12347 2.57286 24.58614 -25.76440 14.20025 -5.22523 26.14105 4.87993 6.06594 0.03617 -0.00447 -26.16069 -4.98156 -7.24159 -27.25066 -0.22236 -3.13186 -8.80552 37.44137 34.05878 12.43472 -0.08767 0.02860 -16.48560 -51.78262 -26.94950 
-78.03303 89.34309 152.23247 -4.61655 3.56515 -158.64789 5.95517 16.48089 13.95163 0.00444 -0.00582 -0.02149 -34.70902 22.47809 28.28400 9.00231 -3.07584 -4.69347 23.97376 -79.76208 44.54985 -42.78156 47.98634 -100.38702 5.00520 9.48274 4.35765 30.16540 -1.94693 2.83297 39.29235 -14.59215 61.88233 22.82435 36.87910 104.14420 -5.99836 4.17173 4.40020 25.10602 -27.19651 14.89265 -3.00411 25.61004 -1.94139 5.86016 0.00197 0.00955 -25.92926 -5.33204 -3.01756 -26.53671 4.04225 1.35238 -2.93136 30.19297 24.26481 12.36873 -0.09670 -0.02216 -10.28967 -42.56389 -27.15762 
-75.57767 88.87577 153.03253 -4.30552 3.09787 -158.05602 5.83028 16.44704 14.30765 0.00346 -0.00514 -0.02115 -34.96975 21.39696 28.27127 8.63383 -2.58240 -5.47884 27.77669 -80.28001 49.48202 -42.93021 48.49811 -100.73730 4.89661 9.24626 0.34159 29.56748 -1.76704 1.83338 41.11514 -13.76056 63.59750 22.58761 37.07128 103.82792 -5.76507 6.98686 1.32964 25.16056 -28.30841 15.28421 -1.16006 24.47318 -7.73409 5.96033 0.01252 -0.00847 -12.88489 4.84654 -6.73604 -26.00089 7.84235 5.51029 2.21932 24.74042 14.67105 8.59959 -0.17263 0.06885 -9.81037 -44.59548 -22.01620 
-73.28323 88.45166 153.70023 -4.02454 2.82048 -157.51567 5.84360 16.45741 14.37538 0.00293 -0.00385 -0.02077 -35.20950 20.41463 28.53754 8.29266 -1.98693 -6.15721 31.95755 -80.87458 54.88262 -43.29048 49.12526 -100.80439 5.32416 8.76112 2.32525 28.96224 -1.42825 0.92579 42.79086 -12.92014 65.09633 22.40342 37.20210 103.52919 -6.28040 6.03489 2.28292 24.88570 -29.03688 15.40987 0.55964 23.01446 -12.65595 6.09300 0.01351 -0.00867 -22.14121 0.94319 0.94841 -25.66161 11.09343 9.33644 7.06855 20.15809 6.03989 7.81770 -0.14099 0.00973 -8.71064 -42.30466 -18.49895 
-71.19885 88.08069 154.23926 -3.78039 2.72821 -157.00702 6.00742 16.48687 14.17001 0.00299 -0.00418 -0.01868 -35.44840 19.61830 29.07525 8.05290 -1.47589 -6.56889 35.11167 -81.50433 59.28057 -43.86838 49.81773 -100.65748 5.12649 8.78783 -0.38943 28.53474 -1.08609 0.27435 44.14698 -12.05598 66.17300 22.23378 37.26796 103.17731 -6.23059 7.78506 0.45900 24.39651 -29.36261 15.32514 2.21209 21.43362 -16.73450 6.18340 0.01128 -0.00776 -22.09940 3.88313 3.19184 -25.50842 13.81105 12.82228 11.46216 16.05506 -1.03496 4.51074 -0.18971 0.03701 -7.62110 -43.23285 -14.04416 
-69.26196 87.86826 154.71011 -3.56472 2.79323 -156.53329 6.27853 16.51777 13.74208 0.00034 -0.00315 -0.01668 -35.60088 18.97697 29.81390 7.69967 -0.88497 -6.77348 37.39614 -82.31318 62.52353 -44.50624 50.43810 -100.26698 5.30696 8.62341 0.76183 28.07981 -0.59455 -0.20494 45.42998 -11.23275 66.99760 22.06234 37.27406 102.82523 -6.42742 7.25573 0.89174 23.83947 -29.30527 15.10569 3.67404 19.86885 -19.88563 6.34209 0.01148 -0.00807 -25.29154 3.36322 7.85682 -24.69429 15.32150 15.25547 14.41656 13.34489 -5.77844 3.78119 -0.14361 0.02060 -8.67220 -43.16684 -11.58518 
-67.49129 87.80153 155.10349 -3.35459 2.98240 -156.12886 6.61853 16.52831 13.17835 -0.00177 -0.00230 -0.01396 -35.66344 18.51952 30.70413 7.25241 -0.29155 -6.73895 37.94700 -83.26224 63.74708 -45.11775 50.95264 -99.76331 5.11191 8.81363 -0.84661 27.64754 -0.02445 -0.42953 46.53973 -10.50208 67.50525 21.86647 37.23702 102.40680 -6.12895 8.40421 -0.35895 23.40479 -29.04395 14.90813 4.60610 19.77648 -20.61754 7.36290 0.00031 -0.01072 -26.01290 3.14305 8.87966 -23.33370 15.97089 16.64958 15.48046 10.19681 -8.55656 1.63766 -0.12992 0.06353 -7.94534 -41.89237 -9.42270 
-65.89521 87.90975 155.42191 -3.14006 3.26178 -155.82077 6.98418 16.51012 12.54400 -0.00329 -0.00127 -0.01204 -35.65573 18.26293 31.71542 6.75363 0.30118 -6.57632 37.08604 -84.24568 63.30335 -45.58070 51.27758 -99.23703 5.25709 9.10406 -0.14433 27.16692 0.58209 -0.52019 47.51239 -9.80722 67.86321 21.64872 37.14469 101.95024 -5.93291 8.32669 -0.07883 23.17974 -28.74121 14.84182 5.08062 20.51727 -19.31733 8.94580 -0.02071 0.00489 -27.87693 7.54562 24.20444 -21.51767 15.95733 17.04647 15.19695 9.39552 -8.99476 3.52648 -0.13849 0.01487 -10.43592 -40.41107 -9.29376 
-64.50175 88.17523 155.63890 -2.92665 3.60619 -155.60765 7.34019 16.45905 11.87770 -0.00409 -0.00057 -0.00990 -35.61507 18.22745 32.81103 6.22350 0.86119 -6.25570 34.53648 -85.20474 60.96787 -45.92951 51.45903 -98.75393 5.15006 9.42603 -1.04558 26.57215 1.20771 -0.44484 48.37726 -9.17370 68.08252 21.39907 37.01052 101.46099 -5.50642 9.04808 -0.77132 23.17583 -28.49536 14.94126 5.08407 21.84975 -16.46472 10.96186 -0.04989 0.02507 -27.60038 6.30756 13.88100 -19.35762 15.27498 16.52375 14.23611 12.28945 -8.21987 2.39875 -0.02677 -0.02482 -9.26773 -41.28543 -9.94364 
-63.33410 88.55377 155.74577 -2.71892 3.99401 -155.47928 7.66941 16.36351 11.19948 -0.00414 -0.00035 -0.00821 -35.57018 18.37822 33.97449 5.70579 1.35256 -5.81911 30.23887 -86.03453 56.74968 -46.15522 51.51256 -98.37905 5.25019 9.85235 -0.67509 25.87420 1.77724 -0.34140 49.13223 -8.50508 68.25015 21.16355 36.85924 100.98173 -5.24058 9.07726 -0.45365 23.39721 -28.33440 15.21652 4.51532 23.63366 -12.48832 13.42139 -0.07921 0.04925 -28.43163 6.55227 12.59380 -17.63024 14.79649 16.07317 12.87696 12.67201 -7.08102 8.84094 -0.20920 -0.01566 -14.98195 -39.67667 -9.96105 
-62.38456 89.00191 155.75305 -2.49692 4.37024 -155.41066 7.96914 16.17498 10.52464 -0.00392 0.00031 -0.00609 -35.53693 18.69415 35.17296 5.19334 1.82848 -5.23368 -26.42716 -90.00000 0.00000 -46.35367 51.51223 -98.07248 5.16708 10.11244 -1.14204 25.06656 2.38327 -0.07132 49.77760 -8.02896 68.36765 20.97590 36.69743 100.49272 -4.87230 9.55785 -0.84721 23.71725 -28.15362 15.58429 4.20223 24.17488 -9.32677 15.15132 -0.03705 0.02595 -29.39355 6.71843 6.56044 -16.25010 14.45514 15.63270 11.65215 13.61462 -6.12487 6.69021 -0.01248 -0.01549 -11.62372 -39.13341 -8.93355 
-61.61999 89.48301 155.69574 -2.26154 4.71474 -155.37427 8.22368 15.89369 9.85839 -0.00436 0.00151 -0.00413 -35.51519 19.12517 36.37373 4.64617 2.31717 -4.55671 -26.23566 -90.00000 0.00000 -46.52155 51.46892 -97.80592 5.20525 10.54287 -0.84437 24.17533 3.02507 0.29340 50.30919 -7.72485 68.51479 20.85236 36.52691 100.00983 -4.64239 9.61801 -0.59654 23.98676 -27.82107 15.94119 4.04543 23.92674 -6.93791 16.40062 -0.01660 0.00991 -30.94995 7.72099 3.91995 -15.14962 14.17463 15.16063 10.58338 14.81085 -5.22540 9.34456 -0.03680 0.00670 0.28771 -28.05812 8.18804 
